*************************HAUNTING.SUMMER*******************************************

Format                           : Matroska
File size                        : 43.5 MiB
Duration                         : 5mn 27s
Overall bit rate                 : 1 114 Kbps
Encoded date                     : UTC 2007-10-06 06:19:54
Writing application              : mkvmerge v2.0.2 ('You're My Flame') built on Feb 22 2007 07:36:20
Writing library                  : libebml v0.7.7 + libmatroska v0.8.1

Video
ID                               : 1
Format                           : AVC
Format/Info                      : Advanced Video Codec
Format profile                   : Main@L5.1
Format settings, CABAC           : Yes
Format settings, ReFrames        : 8 frames
Muxing mode                      : Container profile=Unknown@5.1
Codec ID                         : V_MPEG4/ISO/AVC
Duration                         : 5mn 27s
Bit rate                         : 984 Kbps
Width                            : 656 pixels
Height                           : 480 pixels
Display aspect ratio             : 4:3
Frame rate                       : 29.970 fps
Color space                      : YUV
Chroma subsampling               : 4:2:0
Bit depth                        : 8 bits
Scan type                        : Progressive
Bits/(Pixel*Frame)               : 0.104
Stream size                      : 37.7 MiB (87%)
Writing library                  : x264 core 54
Encoding settings                : cabac=1 / ref=5 / deblock=1:0:0 / analyse=0x1:0x131 / me=umh / subme=7 / brdo=0 / mixed_ref=0 / me_range=32 / chroma_me=1 / trellis=1 / 8x8dct=0 / cqm=0 / deadzone=21,11 / chroma_qp_offset=0 / threads=6 / nr=0 / decimate=1 / mbaff=0 / bframes=3 / b_pyramid=1 / b_adapt=1 / b_bias=0 / direct=3 / wpredb=0 / bime=0 / keyint=250 / keyint_min=25 / scenecut=40(pre) / rc=2pass / bitrate=984 / ratetol=1.0 / rceq='blurCplx^(1-qComp)' / qcomp=0.60 / qpmin=10 / qpmax=51 / qpstep=4 / cplxblur=20.0 / qblur=0.5 / vbv_maxrate=984 / vbv_bufsize=8000000 / ip_ratio=1.40 / pb_ratio=1.30

Audio
ID                               : 2
Format                           : Vorbis
Format settings, Floor           : 1
Codec ID                         : A_VORBIS
Duration                         : 5mn 27s
Bit rate                         : 126 Kbps
Channel(s)                       : 2 channels
Sampling rate                    : 44.1 KHz
Video delay                      : -33ms
Stream size                      : 4.92 MiB (11%)
Writing library                  : libVorbis 1.1.1/1.1.2 (UTC 2005-03-04)



******************************SCREEN SHOTS*****************************************

                     http://bayimg.com/paahCAadF

****************************************ENJOY**************************************